<svg width="70" height="44" viewBox="0 0 70 44" fill="none" xmlns="http://www.w3.org/2000/svg">
<path d="M21.6 33.32C20.1067 33.32 18.8053 33.0427 17.696 32.488C16.608 31.912 15.7653 31.112 15.168 30.088C14.592 29.0427 14.304 27.816 14.304 26.408V16.232C14.304 14.824 14.592 13.608 15.168 12.584C15.7653 11.5387 16.608 10.7387 17.696 10.184C18.8053 9.608 20.1067 9.32 21.6 9.32C23.1147 9.32 24.416 9.608 25.504 10.184C26.592 10.7387 27.424 11.5387 28 12.584C28.5973 13.608 28.896 14.8133 28.896 16.2V26.408C28.896 27.816 28.5973 29.0427 28 30.088C27.424 31.112 26.592 31.912 25.504 32.488C24.416 33.0427 23.1147 33.32 21.6 33.32ZM21.6 29.8C22.688 29.8 23.5093 29.512 24.064 28.936C24.6187 28.3387 24.896 27.496 24.896 26.408V16.232C24.896 15.1227 24.6187 14.28 24.064 13.704C23.5093 13.128 22.688 12.84 21.6 12.84C20.512 12.84 19.6907 13.128 19.136 13.704C18.5813 14.28 18.304 15.1227 18.304 16.232V26.408C18.304 27.496 18.5813 28.3387 19.136 28.936C19.712 29.512 20.5333 29.8 21.6 29.8ZM33.5875 33V9.64H40.5315C42.1102 9.64 43.4755 9.93867 44.6275 10.536C45.8008 11.1333 46.7075 11.976 47.3475 13.064C47.9875 14.152 48.3075 15.4427 48.3075 16.936V25.672C48.3075 27.144 47.9875 28.4347 47.3475 29.544C46.7075 30.632 45.8008 31.4853 44.6275 32.104C43.4755 32.7013 42.1102 33 40.5315 33H33.5875ZM37.5875 29.32H40.5315C41.6835 29.32 42.6008 29 43.2835 28.36C43.9662 27.6987 44.3075 26.8027 44.3075 25.672V16.936C44.3075 15.8267 43.9662 14.952 43.2835 14.312C42.6008 13.6507 41.6835 13.32 40.5315 13.32H37.5875V29.32ZM53.191 33V9.64H67.207V13.128H57.127V19.208H66.087V22.664H57.127V29.512H67.207V33H53.191Z" fill="white"/>
<path d="M1.44 21V6.4H4.5L8.56 18.2C8.52 17.7733 8.47333 17.2733 8.42 16.7C8.38 16.1133 8.34667 15.52 8.32 14.92C8.29333 14.3067 8.28 13.7733 8.28 13.32V6.4H10.56V21H7.5L3.48 9.2C3.50667 9.58667 3.54 10.0533 3.58 10.6C3.62 11.1467 3.65333 11.7067 3.68 12.28C3.70667 12.8533 3.72 13.38 3.72 13.86V21H1.44Z" fill="white"/>
<path d="M6.08 38.2C5.14667 38.2 4.32667 38.0267 3.62 37.68C2.92667 37.32 2.38667 36.82 2 36.18C1.62667 35.5267 1.44 34.76 1.44 33.88V27.52C1.44 26.6267 1.62667 25.86 2 25.22C2.38667 24.58 2.92667 24.0867 3.62 23.74C4.32667 23.38 5.14667 23.2 6.08 23.2C7.02667 23.2 7.84 23.38 8.52 23.74C9.21333 24.0867 9.75333 24.58 10.14 25.22C10.5267 25.86 10.72 26.6267 10.72 27.52H8.2C8.2 26.8267 8.01333 26.3 7.64 25.94C7.28 25.58 6.76 25.4 6.08 25.4C5.4 25.4 4.87333 25.58 4.5 25.94C4.12667 26.3 3.94 26.82 3.94 27.5V33.88C3.94 34.56 4.12667 35.0867 4.5 35.46C4.87333 35.82 5.4 36 6.08 36C6.76 36 7.28 35.82 7.64 35.46C8.01333 35.0867 8.2 34.56 8.2 33.88H10.72C10.72 34.7467 10.5267 35.5067 10.14 36.16C9.75333 36.8133 9.21333 37.32 8.52 37.68C7.84 38.0267 7.02667 38.2 6.08 38.2Z" fill="white"/>
<path d="M12.504 40V34.89H13.575L14.996 39.02C14.982 38.8707 14.9657 38.6957 14.947 38.495C14.933 38.2897 14.9213 38.082 14.912 37.872C14.9027 37.6573 14.898 37.4707 14.898 37.312V34.89H15.696V40H14.625L13.218 35.87C13.2273 36.0053 13.239 36.1687 13.253 36.36C13.267 36.5513 13.2787 36.7473 13.288 36.948C13.2973 37.1487 13.302 37.333 13.302 37.501V40H12.504ZM18.7873 40.07C18.4606 40.07 18.1759 40.0093 17.9333 39.888C17.6953 39.762 17.5109 39.587 17.3803 39.363C17.2543 39.1343 17.1913 38.866 17.1913 38.558V36.332C17.1913 36.024 17.2543 35.758 17.3803 35.534C17.5109 35.3053 17.6953 35.1303 17.9333 35.009C18.1759 34.883 18.4606 34.82 18.7873 34.82C19.1186 34.82 19.4033 34.883 19.6413 35.009C19.8793 35.1303 20.0613 35.3053 20.1873 35.534C20.3179 35.758 20.3833 36.0217 20.3833 36.325V38.558C20.3833 38.866 20.3179 39.1343 20.1873 39.363C20.0613 39.587 19.8793 39.762 19.6413 39.888C19.4033 40.0093 19.1186 40.07 18.7873 40.07ZM18.7873 39.3C19.0253 39.3 19.2049 39.237 19.3263 39.111C19.4476 38.9803 19.5083 38.796 19.5083 38.558V36.332C19.5083 36.0893 19.4476 35.905 19.3263 35.779C19.2049 35.653 19.0253 35.59 18.7873 35.59C18.5493 35.59 18.3696 35.653 18.2483 35.779C18.1269 35.905 18.0663 36.0893 18.0663 36.332V38.558C18.0663 38.796 18.1269 38.9803 18.2483 39.111C18.3743 39.237 18.5539 39.3 18.7873 39.3ZM21.8995 40V34.89H23.4185C23.7639 34.89 24.0625 34.9553 24.3145 35.086C24.5712 35.2167 24.7695 35.401 24.9095 35.639C25.0495 35.877 25.1195 36.1593 25.1195 36.486V38.397C25.1195 38.719 25.0495 39.0013 24.9095 39.244C24.7695 39.482 24.5712 39.6687 24.3145 39.804C24.0625 39.9347 23.7639 40 23.4185 40H21.8995ZM22.7745 39.195H23.4185C23.6705 39.195 23.8712 39.125 24.0205 38.985C24.1699 38.8403 24.2445 38.6443 24.2445 38.397V36.486C24.2445 36.2433 24.1699 36.052 24.0205 35.912C23.8712 35.7673 23.6705 35.695 23.4185 35.695H22.7745V39.195ZM26.6778 40V34.89H29.7438V35.653H27.5388V36.983H29.4988V37.739H27.5388V39.237H29.7438V40H26.6778ZM37.0953 40V35.702H35.7583V34.89H39.3143V35.702H37.9773V40H37.0953ZM42.2236 40.07C41.8969 40.07 41.6123 40.0093 41.3696 39.888C41.1316 39.762 40.9473 39.587 40.8166 39.363C40.6906 39.1343 40.6276 38.866 40.6276 38.558V36.332C40.6276 36.024 40.6906 35.758 40.8166 35.534C40.9473 35.3053 41.1316 35.1303 41.3696 35.009C41.6123 34.883 41.8969 34.82 42.2236 34.82C42.5549 34.82 42.8396 34.883 43.0776 35.009C43.3156 35.1303 43.4976 35.3053 43.6236 35.534C43.7543 35.758 43.8196 36.0217 43.8196 36.325V38.558C43.8196 38.866 43.7543 39.1343 43.6236 39.363C43.4976 39.587 43.3156 39.762 43.0776 39.888C42.8396 40.0093 42.5549 40.07 42.2236 40.07ZM42.2236 39.3C42.4616 39.3 42.6413 39.237 42.7626 39.111C42.8839 38.9803 42.9446 38.796 42.9446 38.558V36.332C42.9446 36.0893 42.8839 35.905 42.7626 35.779C42.6413 35.653 42.4616 35.59 42.2236 35.59C41.9856 35.59 41.8059 35.653 41.6846 35.779C41.5633 35.905 41.5026 36.0893 41.5026 36.332V38.558C41.5026 38.796 41.5633 38.9803 41.6846 39.111C41.8106 39.237 41.9903 39.3 42.2236 39.3ZM51.6261 40.07C51.2995 40.07 51.0125 40.0093 50.7651 39.888C50.5225 39.762 50.3335 39.587 50.1981 39.363C50.0675 39.1343 50.0021 38.866 50.0021 38.558V36.332C50.0021 36.0193 50.0675 35.751 50.1981 35.527C50.3335 35.303 50.5225 35.1303 50.7651 35.009C51.0125 34.883 51.2995 34.82 51.6261 34.82C51.9575 34.82 52.2421 34.883 52.4801 35.009C52.7228 35.1303 52.9118 35.303 53.0471 35.527C53.1825 35.751 53.2501 36.0193 53.2501 36.332H52.3681C52.3681 36.0893 52.3028 35.905 52.1721 35.779C52.0461 35.653 51.8641 35.59 51.6261 35.59C51.3881 35.59 51.2038 35.653 51.0731 35.779C50.9425 35.905 50.8771 36.087 50.8771 36.325V38.558C50.8771 38.796 50.9425 38.9803 51.0731 39.111C51.2038 39.237 51.3881 39.3 51.6261 39.3C51.8641 39.3 52.0461 39.237 52.1721 39.111C52.3028 38.9803 52.3681 38.796 52.3681 38.558H53.2501C53.2501 38.8613 53.1825 39.1273 53.0471 39.356C52.9118 39.5847 52.7228 39.762 52.4801 39.888C52.2421 40.0093 51.9575 40.07 51.6261 40.07ZM56.2854 40.07C55.9587 40.07 55.6741 40.0093 55.4314 39.888C55.1934 39.762 55.0091 39.587 54.8784 39.363C54.7524 39.1343 54.6894 38.866 54.6894 38.558V36.332C54.6894 36.024 54.7524 35.758 54.8784 35.534C55.0091 35.3053 55.1934 35.1303 55.4314 35.009C55.6741 34.883 55.9587 34.82 56.2854 34.82C56.6167 34.82 56.9014 34.883 57.1394 35.009C57.3774 35.1303 57.5594 35.3053 57.6854 35.534C57.8161 35.758 57.8814 36.0217 57.8814 36.325V38.558C57.8814 38.866 57.8161 39.1343 57.6854 39.363C57.5594 39.587 57.3774 39.762 57.1394 39.888C56.9014 40.0093 56.6167 40.07 56.2854 40.07ZM56.2854 39.3C56.5234 39.3 56.7031 39.237 56.8244 39.111C56.9457 38.9803 57.0064 38.796 57.0064 38.558V36.332C57.0064 36.0893 56.9457 35.905 56.8244 35.779C56.7031 35.653 56.5234 35.59 56.2854 35.59C56.0474 35.59 55.8677 35.653 55.7464 35.779C55.6251 35.905 55.5644 36.0893 55.5644 36.332V38.558C55.5644 38.796 55.6251 38.9803 55.7464 39.111C55.8724 39.237 56.0521 39.3 56.2854 39.3ZM59.3977 40V34.89H60.9167C61.262 34.89 61.5607 34.9553 61.8127 35.086C62.0693 35.2167 62.2677 35.401 62.4077 35.639C62.5477 35.877 62.6177 36.1593 62.6177 36.486V38.397C62.6177 38.719 62.5477 39.0013 62.4077 39.244C62.2677 39.482 62.0693 39.6687 61.8127 39.804C61.5607 39.9347 61.262 40 60.9167 40H59.3977ZM60.2727 39.195H60.9167C61.1687 39.195 61.3693 39.125 61.5187 38.985C61.668 38.8403 61.7427 38.6443 61.7427 38.397V36.486C61.7427 36.2433 61.668 36.052 61.5187 35.912C61.3693 35.7673 61.1687 35.695 60.9167 35.695H60.2727V39.195ZM64.1759 40V34.89H67.2419V35.653H65.0369V36.983H66.9969V37.739H65.0369V39.237H67.2419V40H64.1759Z" fill="white"/>
</svg>
